<svg width="62" height="60" viewBox="0 0 62 60" fill="none" xmlns="http://www.w3.org/2000/svg">
<ellipse cx="31" cy="30" rx="31" ry="30" fill="#911F27"/>
<path d="M50.3337 48.3867V43.72C50.3337 41.2446 49.3152 38.8707 47.5024 37.1203C45.6895 35.37 43.2307 34.3867 40.667 34.3867H21.3337C18.7699 34.3867 16.3111 35.37 14.4983 37.1203C12.6854 38.8707 11.667 41.2446 11.667 43.72V48.3867" stroke="#FACE7F" stroke-width="3" stroke-linecap="round" stroke-linejoin="round"/>
<path d="M31.0002 27.6667C36.3389 27.6667 40.6668 23.488 40.6668 18.3333C40.6668 13.1787 36.3389 9 31.0002 9C25.6614 9 21.3335 13.1787 21.3335 18.3333C21.3335 23.488 25.6614 27.6667 31.0002 27.6667Z" stroke="#FACE7F" stroke-width="3" stroke-linecap="round" stroke-linejoin="round"/>
</svg>
